<?xml version="1.0" encoding="utf-8"?>
<!-- Generator: Adobe Illustrator 22.1.0, SVG Export Plug-In . SVG Version: 6.00 Build 0)  -->
<svg version="1.1" id="レイヤー_1" xmlns="http://www.w3.org/2000/svg" viewBox="0 0 220 41">
<style type="text/css">
	.st0{fill:#047298;stroke:#FFFFFF;stroke-width:1.3128;stroke-miterlimit:10;}
	.st1{fill:#FFFFFF;}
</style>
<g>
	<g>
		<polygon class="st0" points="49.2,10.1 43.5,1.6 30.7,20.8 17.9,1.6 12.1,10.1 30.7,39.7 		"/>
		<polygon class="st0" points="37.8,10.1 32.1,1.6 19.3,20.8 6.5,1.6 0.8,10.1 19.3,39.7 		"/>
	</g>
	<g>
		<polygon class="st1" points="60,5.8 66.1,35.8 72.6,35.8 75.4,20.4 77.9,36.1 84.1,36.1 90,5.8 82.7,5.8 80.4,17.8 77.9,5.8 
			73.1,5.8 70.1,17 67,5.8 		"/>
		<polygon class="st1" points="85.5,36.1 97.4,1.3 109.9,36.1 102.9,36.1 97.4,20.9 93.1,36.1 		"/>
		<polygon class="st1" points="130.7,36.1 142.7,1.3 155.1,36.1 148.1,36.1 142.7,20.9 138.3,36.1 		"/>
		<polygon class="st1" points="111.1,5.3 111.1,36.1 117.7,36.1 117.7,29.1 122.2,35.8 129.9,35.8 121.1,22.3 129.1,5.3 120.9,5.3 
			117.9,12.6 117.9,5.3 		"/>
		<path class="st1" d="M170,9.4l-2.9,3.4c0,0-3.5-3.6-4.8-1.1c-2.7,4.1,8.4,10.1,8.4,15.3c0,0,0.4,9.1-7.6,9.1c-5.3,0-8-3.1-8-3.1
			l3.5-4.2c0,0,3.6,3.2,6,1.1c2.4-2.1-4.8-9.1-4.8-9.1s-4.8-3.9-4.3-7.9s2.4-7.2,7.2-7.2C167.4,5.8,170,9.4,170,9.4z"/>
		<path class="st1" d="M172.1,5.8v12.9c0,0,0,6,0,9.8s1.5,7.6,8.4,7.6c6.9,0,8.9-3.6,8.9-7.6s0-22.7,0-22.7h-5.8v19.5
			c0,0,0.3,4.9-2.7,4.9c-2.9,0-3.1-2.5-3.1-4.9s0-19.5,0-19.5L172.1,5.8L172.1,5.8z"/>
		<path class="st1" d="M205.3,14.5l3.6-3.1c0,0-3.5-6-9.1-6s-8.4,5.8-8.7,9c-0.3,3.2-0.6,3.5-0.6,6.5c0,4.1,0.4,8,0.9,9.7
			c0.5,1.6,3.6,5.6,8.5,5.6c6.6,0,9.7-7.2,9.7-11.8c0-4.6,0-4.6,0-4.6h-9.3V24h2.8c0,0,1,6.3-3.4,6.3c-4.3,0-3.9-6.2-3.9-9.8
			c0-3.6,0.4-10,3.8-10C203.1,10.5,205.3,14.5,205.3,14.5z"/>
		<rect x="211.6" y="5.8" class="st1" width="7.7" height="30.3"/>
	</g>
</g>
</svg>
